<svg xmlns="http://www.w3.org/2000/svg" width="60" height="64" viewBox="0 0 60 64">
  <g id="Group_306" data-name="Group 306" transform="translate(-1134 -1161)">
    <path id="Path_1" data-name="Path 1" d="M22,42a2,2,0,0,0-1.3-1.872l-16-6A2,2,0,0,0,2,36V56a2,2,0,0,0,1.3,1.872l16,6A2,2,0,0,0,22,62ZM6,54.614l12,4.5V43.386l-12-4.5Z" transform="translate(1132 1161)" fill="#00398f" fill-rule="evenodd"/>
    <path id="Path_2" data-name="Path 2" d="M19.3,40.128A2,2,0,0,0,18,42V62a2,2,0,0,0,2.7,1.872l16-6A2,2,0,0,0,38,56V36a2,2,0,0,0-2.7-1.872ZM22,43.386V59.114l12-4.5V38.886Z" transform="translate(1132 1161)" fill="#00398f" fill-rule="evenodd"/>
    <path id="Path_3" data-name="Path 3" d="M3.3,34.128a2,2,0,0,0,0,3.744l16,6a2,2,0,0,0,1.4,0l16-6a2,2,0,0,0,0-3.744l-16-6a2,2,0,0,0-1.4,0ZM9.7,36,20,39.864,30.3,36,20,32.136Z" transform="translate(1132 1161)" fill="#00398f" fill-rule="evenodd"/>
    <path id="Path_4" data-name="Path 4" d="M42.155,10A6,6,0,0,1,48,16a2,2,0,0,1-4,.1L44,15.9A2,2,0,1,0,42,18a2,2,0,0,1,0,4,6,6,0,0,1,0-12Z" transform="translate(1132 1161)" fill="#00398f" fill-rule="evenodd"/>
    <path id="Path_5" data-name="Path 5" d="M42,22a2,2,0,1,1-2,2,2,2,0,0,0-4,0,6,6,0,1,0,6-6,2,2,0,0,0,0,4Z" transform="translate(1132 1161)" fill="#00398f" fill-rule="evenodd"/>
    <path id="Path_7" data-name="Path 7" d="M40,28v3a2,2,0,0,0,4,0V28a2,2,0,0,0-4,0Z" transform="translate(1132 1161)" fill="#00398f" fill-rule="evenodd"/>
    <path id="Path_8" data-name="Path 8" d="M32.792,36.935,30.01,35.89a2.029,2.029,0,0,1-.554-.316,19.912,19.912,0,1,1,5.876,3.286,1.986,1.986,0,0,1-.656-.388,2,2,0,0,1-1.81-1.3A2.233,2.233,0,0,1,32.792,36.935Zm5.138-1.458a16.025,16.025,0,1,0-6.2-3.214L36.7,34.128l.072.028.072.032.026.014.058.028.03.016.022.012.024.014.03.018.046.03.03.018.014.01.014.008.1.072c.036.028.072.058.1.088l.01.008.022.022.046.044.022.022.016.016.018.02.028.03.032.042.02.022.01.012.014.016.068.094c.026.038.05.076.074.114l0,.008.014.026.034.06.012.026.012.02.01.026.018.036.02.046.012.03.006.016.008.018.028.084.008.022,0,.008Z" transform="translate(1132 1161)" fill="#00398f" fill-rule="evenodd"/>
  </g>
</svg>
