<svg xmlns="http://www.w3.org/2000/svg" width="46.977" height="59.355" viewBox="0 0 46.977 59.355">
  <path id="Union_4" data-name="Union 4" d="M17426.143,22155.49l-7.465,1.129,4.988-12.914a6.167,6.167,0,0,1-4.594-5.957v-3.375a3.084,3.084,0,0,0-.885-2.146l-2.385-2.387a6.151,6.151,0,0,1,0-8.7l2.385-2.391a3.042,3.042,0,0,0,.885-2.141v-3.377a6.167,6.167,0,0,1,6.158-6.156h3.375a3.008,3.008,0,0,0,2.141-.885l2.387-2.387a6.148,6.148,0,0,1,8.705,0l2.385,2.387a3.008,3.008,0,0,0,2.146.885h3.371a6.162,6.162,0,0,1,6.156,6.156v3.377a3.009,3.009,0,0,0,.891,2.141l2.387,2.391a6.151,6.151,0,0,1,0,8.7l-2.387,2.387a2.993,2.993,0,0,0-.891,2.146v3.375a6.159,6.159,0,0,1-4.594,5.957l4.994,12.92-7.475-1.129-4.76,5.846-4.873-12.6a6.164,6.164,0,0,1-3.408,0l-4.873,12.609Zm18.08-10.689-2.312,2.309,3.125,8.092,2.492-3.07,3.91.6-3.4-8.814h-1.664A2.988,2.988,0,0,0,17444.223,22144.8Zm-14.287,10.4,3.125-8.092-2.314-2.32a3,3,0,0,0-2.141-.883h-1.662l-3.41,8.814,3.91-.59Zm-4.711-44.994a3.03,3.03,0,0,0-3.031,3.031v3.371a6.118,6.118,0,0,1-1.8,4.354l-2.385,2.387a3.034,3.034,0,0,0,0,4.283l2.385,2.385a6.116,6.116,0,0,1,1.8,4.35v3.381a3.035,3.035,0,0,0,3.031,3.027h3.375a6.114,6.114,0,0,1,4.35,1.8l.006.006,2.391,2.387a3.574,3.574,0,0,0,.34.3l.1.068a2.106,2.106,0,0,0,.268.16,3.015,3.015,0,0,0,2.854,0,2.387,2.387,0,0,0,.262-.16,3.007,3.007,0,0,0,.455-.373l2.387-2.387a6.114,6.114,0,0,1,4.35-1.8h3.381a3.03,3.03,0,0,0,3.025-3.027v-3.381a6.116,6.116,0,0,1,1.8-4.35l2.385-2.385a3.041,3.041,0,0,0,0-4.289l-2.385-2.387a6.111,6.111,0,0,1-1.8-4.348v-3.377a3.027,3.027,0,0,0-3.025-3.031h-3.381a6.1,6.1,0,0,1-4.35-1.807l-2.387-2.393a3.039,3.039,0,0,0-4.287,0l-2.387,2.393a6.108,6.108,0,0,1-4.35,1.795h-3.375Zm2.48,25.066a13.844,13.844,0,1,1,9.783,4.049A13.761,13.761,0,0,1,17427.705,22135.273Zm-.924-9.783a10.706,10.706,0,1,0,10.707-10.705A10.719,10.719,0,0,0,17426.781,22125.49Zm3.666,1.063,2.213-2.2,2.875,2.877,6.775-6.775,2.213,2.2-8.988,8.988Z" transform="translate(-17414 -22101.998)" fill="#00398f"/>
</svg>
