<svg xmlns="http://www.w3.org/2000/svg" width="64" height="37.333" viewBox="0 0 64 37.333">
  <g id="Fast_Delivery" data-name="Fast Delivery" transform="translate(0 -18.667)">
    <path id="Vector" d="M12,32H2a2,2,0,0,1,0-4H12a2,2,0,0,1,0,4Zm20,0H22.667a2,2,0,0,1,0-4h7.717L35.528,4H7.333a2,2,0,0,1,0-4H38a2,2,0,0,1,1.955,2.419l-6,28A2,2,0,0,1,32,32Z" transform="translate(5.333 18.667)" fill="#00398f"/>
    <path id="Vector-2" data-name="Vector" d="M24.667,24H22a2,2,0,0,1,0-4h1.051l1.613-7.533A8.676,8.676,0,0,0,16,4H7.9L4.472,20h6.861a2,2,0,1,1,0,4H2A2,2,0,0,1,.045,21.581l4.285-20A2,2,0,0,1,6.285,0H16A12.682,12.682,0,0,1,28.667,12.667a1.847,1.847,0,0,1-.045.419l-2,9.333A2,2,0,0,1,24.667,24Z" transform="translate(35.333 26.667)" fill="#00398f"/>
    <path id="Vector-3" data-name="Vector" d="M52,32a6.667,6.667,0,1,1,6.667-6.667A6.674,6.674,0,0,1,52,32Zm0-9.333a2.667,2.667,0,1,0,2.667,2.667A2.669,2.669,0,0,0,52,22.667ZM22.667,32a6.667,6.667,0,1,1,6.667-6.667A6.674,6.674,0,0,1,22.667,32Zm0-9.333a2.667,2.667,0,1,0,2.667,2.667A2.669,2.669,0,0,0,22.667,22.667ZM16.667,4H7.333a2,2,0,0,1,0-4h9.333a2,2,0,0,1,0,4Zm0,8h-12a2,2,0,1,1,0-4h12a2,2,0,0,1,0,4Zm0,8H2a2,2,0,0,1,0-4H16.667a2,2,0,1,1,0,4Z" transform="translate(0 24)" fill="#00398f"/>
  </g>
</svg>
