<svg xmlns="http://www.w3.org/2000/svg" width="44" height="56.059" viewBox="0 0 44 56.059">
  <g id="Quality" transform="translate(-10 -3.941)">
    <path id="Vector" d="M44,22.059a22,22,0,1,0-34,18.38v13.62a2.014,2.014,0,0,0,2.4,1.96l9.6-1.96,9.6,2H32a2,2,0,0,0,2-2V40.479a22,22,0,0,0,10-18.42ZM30,51.619l-6-1.2v-6.46a21.8,21.8,0,0,0,6-1.42Zm-8-11.56a2,2,0,0,0-2,2v8.36l-6,1.2V39.379a1.88,1.88,0,0,0,0-.24,2,2,0,0,0,0-.4,2.7,2.7,0,0,0-.38-.66,2,2,0,0,0-.32-.28,1.88,1.88,0,0,0-.18-.16A18,18,0,1,1,22,40.059Z" transform="translate(10 3.941)" fill="#00398f"/>
    <path id="Vector-2" data-name="Vector" d="M23.506,7.7l-6-1.66L14.126.884a2,2,0,0,0-3.32,0l-3.44,5.14-6,1.66a2,2,0,0,0-.9,3.18l3.84,4.84-.26,6.18a2,2,0,0,0,2.7,2l5.72-2.18,5.8,2.14a2,2,0,0,0,2.7-2l-.26-6.18,3.76-4.8a2,2,0,0,0-1.02-3.16Zm-6.4,6.12a2,2,0,0,0-.42,1.32l.16,4-3.68-1.36a2,2,0,0,0-1.4,0l-3.68,1.36.16-4a2,2,0,0,0-.42-1.32l-2.44-3.08,3.78-1.06a2,2,0,0,0,1.12-.82l2.18-3.26,2.18,3.26a2,2,0,0,0,1.12.82l3.78,1.06Z" transform="translate(19.534 12.836)" fill="#00398f"/>
  </g>
</svg>
