<svg xmlns="http://www.w3.org/2000/svg" width="21.333" height="26.667" viewBox="0 0 21.333 26.667">
  <g id="Shopping_Bag" data-name="Shopping Bag" transform="translate(-5.333 -2.667)">
    <path id="Vector" d="M20,6.667H16V5.333a5.333,5.333,0,0,0-10.667,0V6.667h-4A1.333,1.333,0,0,0,0,8V22.667a4,4,0,0,0,4,4H17.333a4,4,0,0,0,4-4V8A1.333,1.333,0,0,0,20,6.667ZM8,5.333a2.667,2.667,0,0,1,5.333,0V6.667H8ZM18.667,22.667A1.333,1.333,0,0,1,17.333,24H4a1.333,1.333,0,0,1-1.333-1.333V9.333H5.333v1.333a1.333,1.333,0,1,0,2.667,0V9.333h5.333v1.333a1.333,1.333,0,1,0,2.667,0V9.333h2.667Z" transform="translate(5.333 2.667)" fill="#fff"/>
  </g>
</svg>
