<svg xmlns="http://www.w3.org/2000/svg" width="30.898" height="33.736" viewBox="0 0 30.898 33.736">
  <g id="support" transform="translate(-17.756)">
    <g id="Group_238" data-name="Group 238" transform="translate(17.756)">
      <path id="Path_403" data-name="Path 403" d="M45.4,13.946h-.084V11.9a11.9,11.9,0,1,0-23.8,0v2.046h-.5a3.4,3.4,0,0,0-3.257,3.507v5.219a3.3,3.3,0,0,0,3.214,3.381H24.1a.793.793,0,0,0,.755-.83c0-.016,0-.031,0-.047V14.948c0-.5-.292-1-.752-1h-.919V11.9a10.229,10.229,0,0,1,20.459,0v2.046h-.919c-.459,0-.752.5-.752,1V25.177a.793.793,0,0,0,.7.873l.047,0h.96l-.084.125a6.6,6.6,0,0,1-5.3,2.63,4.134,4.134,0,0,0-8.184.793,4.175,4.175,0,0,0,4.175,4.134A4.3,4.3,0,0,0,37.3,32.442a3.675,3.675,0,0,0,1-2,8.267,8.267,0,0,0,6.639-3.3l.793-1.169a2.843,2.843,0,0,0,2.923-2.881V17.87C48.655,16.075,47.319,13.946,45.4,13.946ZM23.185,24.384H21.014a1.628,1.628,0,0,1-1.588-1.667c0-.015,0-.03,0-.044V17.453a1.731,1.731,0,0,1,1.587-1.837h2.171Zm12.9,6.889a2.464,2.464,0,0,1-1.8.793A2.547,2.547,0,0,1,31.787,29.6a2.463,2.463,0,1,1,4.927,0v0A2.213,2.213,0,0,1,36.087,31.273Zm10.9-8.184c0,1.127-1.086,1.294-1.587,1.294H43.644V15.616H45.4c.919,0,1.587,1.294,1.587,2.255Z" transform="translate(-17.756)" fill="#fff"/>
    </g>
  </g>
</svg>
