<svg xmlns="http://www.w3.org/2000/svg" xmlns:xlink="http://www.w3.org/1999/xlink" width="90" height="90" viewBox="0 0 90 90"><defs><clipPath id="a"><path d="M0-682.665H54.934v54.934H0Z" transform="translate(0 682.665)"/></clipPath></defs><g transform="translate(-891.5 -884)"><g transform="translate(891.5 884)" fill="none" stroke="#a7a7a7" stroke-width="1"><rect width="90" height="90" rx="12" stroke="none"/><rect x="0.5" y="0.5" width="89" height="89" rx="11.5" fill="none"/></g><g transform="translate(911.066 902.822)"><g transform="translate(43.239 12.446)"><path d="M-5.976-65.119a.8.8,0,0,1-.8-.8V-80H-8.391v4.958a.8.8,0,0,1-.8.8.8.8,0,0,1-.8-.8v-5.763a.8.8,0,0,1,.8-.8h3.219a.8.8,0,0,1,.8.8v14.885A.8.8,0,0,1-5.976-65.119Z" transform="translate(10 81.613)"/></g><g clip-path="url(#a)"><g transform="translate(5.311 0.152)"><path d="M-5.977-20.785a.8.8,0,0,1-.8-.8V-38.924H-8.391v1.652a.8.8,0,0,1-.8.8.8.8,0,0,1-.8-.8v-2.457a.8.8,0,0,1,.8-.8h3.219a.8.8,0,0,1,.8.8V-21.59A.8.8,0,0,1-5.977-20.785Z" transform="translate(10 40.533)"/></g></g><g transform="translate(5.311 6.023)"><path d="M-9.2-259.011a.8.8,0,0,1-.8-.8v-21.932a.8.8,0,0,1,.8-.8.8.8,0,0,1,.8.8v21.932A.8.8,0,0,1-9.2-259.011Z" transform="translate(10 282.553)"/></g><g clip-path="url(#a)"><g transform="translate(41.63 3.219)"><path d="M-75.639-113.83h-5.192a1.429,1.429,0,0,1-1.428-1.428v-7.981a1.429,1.429,0,0,1,1.428-1.428h5.192a1.429,1.429,0,0,1,1.428,1.428v7.981A1.429,1.429,0,0,1-75.639-113.83Zm-5.01-1.609h4.828v-7.618h-4.828Z" transform="translate(82.258 124.666)"/></g><g transform="translate(42.488 0)"><path d="M-63.141-45.172h-4.721a.8.8,0,0,1-.8-.8v-2.575A1.45,1.45,0,0,1-67.218-50h3.433a1.45,1.45,0,0,1,1.448,1.448v2.575A.8.8,0,0,1-63.141-45.172Zm-3.916-1.609h3.111V-48.39h-3.111Z" transform="translate(68.666 50)"/></g><g transform="translate(5.257 31.063)"><path d="M-343.2-243.4a21.483,21.483,0,0,1-21.459-21.459c0-.564.022-1.125.065-1.669a.806.806,0,0,1,.834-.742.8.8,0,0,1,.773.8c-.042.569-.062,1.088-.062,1.609A19.872,19.872,0,0,0-343.2-245.013a19.734,19.734,0,0,0,7.578-1.5.8.8,0,0,1,1.051.436.8.8,0,0,1-.436,1.051A21.335,21.335,0,0,1-343.2-243.4Z" transform="translate(364.656 267.275)"/></g><g transform="translate(36.847 31.866)"><path d="M-129.193,19.938a.8.8,0,0,1-.683-.378.8.8,0,0,1,.256-1.109,19.756,19.756,0,0,0,9.34-16.842c0-.522-.02-1.041-.06-1.543l.8-.067.8,0c.04.481.062,1.042.062,1.606a21.356,21.356,0,0,1-10.1,18.207A.8.8,0,0,1-129.193,19.938Z" transform="translate(129.998 0)"/></g><g transform="translate(8.549 15.236)"><path d="M25.527-189.231a.8.8,0,0,1-.8-.731A16.751,16.751,0,0,0,8.166-205.057,16.751,16.751,0,0,0-8.395-189.962a.8.8,0,0,1-.875.728A.8.8,0,0,1-10-190.11,18.373,18.373,0,0,1,8.166-206.666,18.373,18.373,0,0,1,26.33-190.11a.8.8,0,0,1-.728.875Q25.564-189.231,25.527-189.231Z" transform="translate(10.001 206.666)"/></g><g transform="translate(5.257 8.798)"><path d="M-386.252-9.277a21.483,21.483,0,0,1-21.459-21.459,21.483,21.483,0,0,1,21.459-21.459,21.3,21.3,0,0,1,8.664,1.821.8.8,0,0,1,.411,1.061.8.8,0,0,1-1.061.411,19.7,19.7,0,0,0-8.013-1.684A19.872,19.872,0,0,0-406.1-30.736a19.872,19.872,0,0,0,19.849,19.849A19.872,19.872,0,0,0-366.4-30.736a19.815,19.815,0,0,0-8.942-16.587.8.8,0,0,1-.229-1.115.8.8,0,0,1,1.115-.229,21.42,21.42,0,0,1,9.666,17.93A21.483,21.483,0,0,1-386.252-9.277Z" transform="translate(407.711 52.194)"/></g><g transform="translate(8.476 12.017)"><path d="M-208.426-406.853a18.26,18.26,0,0,1-18.24-18.24,18.26,18.26,0,0,1,18.24-18.24,18.26,18.26,0,0,1,18.24,18.24A18.26,18.26,0,0,1-208.426-406.853Zm0-34.87a16.649,16.649,0,0,0-16.63,16.63,16.649,16.649,0,0,0,16.63,16.63,16.649,16.649,0,0,0,16.63-16.63A16.649,16.649,0,0,0-208.426-441.723Z" transform="translate(226.666 443.332)"/></g></g></g></g></svg>