<svg xmlns="http://www.w3.org/2000/svg" width="90" height="90" viewBox="0 0 90 90"><g transform="translate(-1364.5 -884)"><g transform="translate(1364.5 884)" fill="none" stroke="#a7a7a7" stroke-width="1"><rect width="90" height="90" rx="12" stroke="none"/><rect x="0.5" y="0.5" width="89" height="89" rx="11.5" fill="none"/></g><g transform="translate(1394.522 901.004)"><path d="M120.6,3.34a5.6,5.6,0,0,0-.973-1.738A4.563,4.563,0,0,0,118.181.43,3.852,3.852,0,0,0,116.415,0H95.538a3.852,3.852,0,0,0-1.766.43A4.563,4.563,0,0,0,92.33,1.6a5.6,5.6,0,0,0-.973,1.738A6.4,6.4,0,0,0,91,5.468v7.953a.923.923,0,1,0,1.815,0V5.468a3.053,3.053,0,0,1,2.723-3.281h20.876a3.053,3.053,0,0,1,2.723,3.281V50.525a3.053,3.053,0,0,1-2.723,3.281H95.538a3.053,3.053,0,0,1-2.723-3.281V23.262a.923.923,0,1,0-1.815,0V50.525a6.4,6.4,0,0,0,.357,2.128,5.6,5.6,0,0,0,.973,1.738,4.563,4.563,0,0,0,1.442,1.172,3.853,3.853,0,0,0,1.766.43h20.876a3.853,3.853,0,0,0,1.766-.43,4.563,4.563,0,0,0,1.442-1.172,5.6,5.6,0,0,0,.973-1.738,6.4,6.4,0,0,0,.357-2.128V5.468A6.4,6.4,0,0,0,120.6,3.34Z" transform="translate(-91 0)"/><ellipse cx="0.908" cy="0.908" rx="0.908" ry="0.908" transform="translate(0 17.367)"/><path d="M135.648,48.279a2.7,2.7,0,0,0,.8-1.925V42.723a2.723,2.723,0,0,0-5.446,0v3.631a2.723,2.723,0,0,0,4.648,1.925Zm-2.833-1.925V42.723a.908.908,0,1,1,1.815,0v3.631a.908.908,0,1,1-1.815,0Z" transform="translate(-127.369 -36.369)"/><ellipse cx="0.908" cy="0.908" rx="0.908" ry="0.908" transform="translate(19.125 50.547)"/><path d="M348.007,390.169a1.816,1.816,0,0,0,1.815-1.815v-5.446a.908.908,0,0,0-1.815,0h0v5.446h-.389a.908.908,0,0,0,0,1.815Z" transform="translate(-323.5 -337.807)"/></g></g></svg>