<svg xmlns="http://www.w3.org/2000/svg" width="90" height="90" viewBox="0 0 90 90"><g transform="translate(-457 -884)"><g transform="translate(457 884)" fill="none" stroke="#a7a7a7" stroke-width="1"><rect width="90" height="90" rx="12" stroke="none"/><rect x="0.5" y="0.5" width="89" height="89" rx="11.5" fill="none"/></g><g transform="translate(475.531 901.533)"><path d="M107.873,233.388a11.284,11.284,0,0,1-8-3.31L87.315,217.524a11.319,11.319,0,0,1,0-16.008l16.074-16.074a1.057,1.057,0,0,1,1.494,0l27.068,27.068a1.057,1.057,0,0,1,0,1.494l-16.074,16.074A11.285,11.285,0,0,1,107.873,233.388Zm-3.737-45.705L88.809,203.01a9.206,9.206,0,0,0,0,13.02l12.557,12.554a9.217,9.217,0,0,0,13.02,0l15.326-15.326Z" transform="translate(-83.999 -178.454)"/><path d="M462.6,210.418a1.057,1.057,0,0,1-.747-1.8l3.871-3.871a1.406,1.406,0,0,0,0-1.988l-14.3-14.3a1.407,1.407,0,0,0-1.988,0l-3.871,3.871a1.057,1.057,0,0,1-1.491-1.494l3.871-3.871a3.523,3.523,0,0,1,4.976,0l14.3,14.3a3.519,3.519,0,0,1,0,4.976l-3.871,3.871A1.057,1.057,0,0,1,462.6,210.418Z" transform="translate(-420.036 -179.202)"/><path d="M567.65,97.315a1.057,1.057,0,0,1-.747-1.8l7.374-7.374a1.189,1.189,0,1,0-1.677-1.677l-7.374,7.374a1.057,1.057,0,0,1-1.494-1.494l7.374-7.374a3.3,3.3,0,0,1,4.665,4.665L568.4,97.008a1.057,1.057,0,0,1-.747.307Z" transform="translate(-531.766 -84)"/><path d="M718.548,248.492a1.056,1.056,0,0,1-.747-1.8l7.374-7.374a1.185,1.185,0,0,0-.021-1.7,1.218,1.218,0,0,0-1.688.053l-7.341,7.342a1.058,1.058,0,0,1-1.5-1.494l7.344-7.341a3.3,3.3,0,0,1,5.664,2.3,3.281,3.281,0,0,1-.967,2.333l-7.374,7.374A1.056,1.056,0,0,1,718.548,248.492Z" transform="translate(-672.697 -225.21)"/><path d="M268.3,438.362a1.057,1.057,0,0,1-.747-1.8l6.648-6.651-2.8-2.8a1.057,1.057,0,0,1,.264-1.688l10.981-5.6a1.057,1.057,0,0,1,1.227.194l4.407,4.407a1.057,1.057,0,0,1-.214,1.659L281.7,429.8l2.617,2.617a1.057,1.057,0,0,1-.471,1.766l-15.272,4.146A1.048,1.048,0,0,1,268.3,438.362Zm5.621-11.719,2.52,2.523a1.057,1.057,0,0,1,0,1.494l-4.589,4.586,9.686-2.629-2.3-2.3a1.057,1.057,0,0,1,.215-1.659l6.362-3.716-2.9-2.9Z" transform="translate(-255.146 -397.537)"/></g></g></svg>