<svg xmlns="http://www.w3.org/2000/svg" width="90" height="90" viewBox="0 0 90 90"><g transform="translate(-220 -884)"><g transform="translate(220 884)" fill="none" stroke="#a7a7a7" stroke-width="1"><rect width="90" height="90" rx="12" stroke="none"/><rect x="0.5" y="0.5" width="89" height="89" rx="11.5" fill="none"/></g><g transform="translate(240.836 902.822)"><path d="M41.946,21.349a1.454,1.454,0,0,0-2.055.031L26.865,34.405a1.454,1.454,0,1,0,2.057,2.057L41.947,23.436a1.454,1.454,0,0,0,0-2.088ZM25.492,37.8a1.454,1.454,0,0,0-2.055.031L21.38,39.89a1.454,1.454,0,1,0,2.057,2.057l2.057-2.057a1.454,1.454,0,0,0,0-2.088Z" transform="translate(-6.516 -5.486)" stroke="#fff" stroke-width="0.5"/><path d="M37.848,34A4.848,4.848,0,1,0,42.7,38.848,4.87,4.87,0,0,0,37.848,34Zm0,2.909a1.939,1.939,0,1,1-1.939,1.939A1.917,1.917,0,0,1,37.848,36.909Z" transform="translate(-6.883 -5.884)" stroke="#fff" stroke-width="0.5"/><path d="M25.848,20A4.848,4.848,0,1,0,30.7,24.848,4.87,4.87,0,0,0,25.848,20Zm0,2.909a1.939,1.939,0,1,1-1.939,1.939A1.917,1.917,0,0,1,25.848,22.909Z" transform="translate(-6.518 -5.457)" stroke="#fff" stroke-width="0.5"/><path d="M31.211,5c-2.887.33-4.684,3.066-7.141,4.338-2.741.41-5.8-.76-8.341.662-2.13,1.962-1.981,5.21-3.212,7.679-1.976,1.932-5.139,2.774-6.356,5.408-.565,2.84,1.479,5.372,1.945,8.089C7.64,33.9,5.6,36.427,6.161,39.267c1.215,2.636,4.381,3.475,6.356,5.408,1.231,2.47,1.081,5.719,3.212,7.682,2.538,1.422,5.6.252,8.341.662,2.459,1.27,4.254,4.008,7.141,4.338,2.886-.331,4.68-3.069,7.139-4.338,2.761-.5,5.748.389,8.388-.681a1.458,1.458,0,0,0-1.282-2.553c-3.355.667-7.336-.872-10.116,1.736-1.439.773-3.014,3.142-4.511,2.746-2.74-1.45-4.823-4.758-8.309-4.219-1.621-.215-4.291.784-5.273-.413-1.357-2.774-1.091-6.669-4.227-8.268C11.836,40.247,9.087,39.5,9,37.951c.538-3.038,3.063-6.019,1.47-9.157-.3-1.6-2.075-3.817-1.234-5.112,2.23-2.143,6.032-3.073,6.6-6.549.708-1.465.583-4.306,2.027-4.856,3.072-.428,6.7,1.036,9.216-1.441,1.439-.774,3.013-3.139,4.511-2.746,2.74,1.45,4.823,4.757,8.309,4.22,1.621.215,4.291-.784,5.273.413,1.362,2.772,1.089,6.669,4.227,8.266,1.183,1.122,3.934,1.871,4.021,3.417-.539,3.037-3.062,6.018-1.47,9.156.3,1.6,2.074,3.817,1.235,5.114-2.141,2.1-5.8,2.965-6.533,6.232-.486,1-.755,2.747.664,3.111,1.388.391,2.02-1.2,2.186-2.281.672-2.284,3.455-2.833,5.041-4.382a4.055,4.055,0,0,0,1.389-5.362c-.631-2.3-2.445-4.671-.94-7.025.68-2.186,2.381-4.881.64-6.985-1.662-1.746-3.944-2.709-5.728-4.3-1.231-2.469-1.082-5.717-3.212-7.679-2.538-1.422-5.6-.252-8.341-.662C35.9,8.077,34.086,5.32,31.211,5Z" transform="translate(-6.063 -5.001)" stroke="#fff" stroke-width="0.5"/></g></g></svg>