<svg xmlns="http://www.w3.org/2000/svg" xmlns:xlink="http://www.w3.org/1999/xlink" width="90" height="90" viewBox="0 0 90 90"><defs><clipPath id="a"><path d="M0-682.665H61.963V-620.7H0Z" transform="translate(0 682.665)"/></clipPath></defs><g transform="translate(-1127 -884)"><g transform="translate(1127 884)" fill="none" stroke="#a7a7a7" stroke-width="1"><rect width="90" height="90" rx="12" stroke="none"/><rect x="0.5" y="0.5" width="89" height="89" rx="11.5" fill="none"/></g><g transform="translate(1141.536 901.533)"><g clip-path="url(#a)"><g transform="translate(0.061 3.602)"><path d="M-184.475-370.979h-2.45a2.908,2.908,0,0,1-2.9-2.9v-13.211a.908.908,0,0,1,.908-.908.908.908,0,0,1,.908.908v13.211a1.091,1.091,0,0,0,1.09,1.09h2.45a1.091,1.091,0,0,0,1.09-1.09v-39.331a10.719,10.719,0,0,0-10.707-10.707,18.36,18.36,0,0,0-10.664,3.989,3.241,3.241,0,0,0-1.21,2.553v8.329a3.241,3.241,0,0,0,1.21,2.553,18.36,18.36,0,0,0,10.664,3.989,10.6,10.6,0,0,0,4.766-1.117.908.908,0,0,1,.882.041.908.908,0,0,1,.43.772v12.087a.908.908,0,0,1-.908.908.908.908,0,0,1-.908-.908v-10.711a12.416,12.416,0,0,1-4.262.744,20.282,20.282,0,0,1-11.8-4.386,5.047,5.047,0,0,1-1.894-3.972v-8.329a5.047,5.047,0,0,1,1.894-3.972,20.282,20.282,0,0,1,11.8-4.386,12.536,12.536,0,0,1,12.522,12.522v39.331A2.908,2.908,0,0,1-184.475-370.979Z" transform="translate(207.782 425.738)"/></g><g transform="translate(18.012 22.462)"><path d="M-9.092-39.814A.908.908,0,0,1-10-40.721v-3.157a.908.908,0,0,1,.908-.908.908.908,0,0,1,.908.908v3.157A.908.908,0,0,1-9.092-39.814Z" transform="translate(10 44.787)"/></g><g transform="translate(5.725 13.996)"><path d="M-9.092-6.184A.908.908,0,0,1-10-7.091v-2A.908.908,0,0,1-9.092-10a.908.908,0,0,1,.908.908v2A.908.908,0,0,1-9.092-6.184Z" transform="translate(10 10)"/></g><g transform="translate(15.119 8.995)"><path d="M-5.94-5.695a.906.906,0,0,1-.724-.36A6.857,6.857,0,0,0-9.4-8.24.908.908,0,0,1-9.95-9.4a.908.908,0,0,1,1.16-.55,8.558,8.558,0,0,1,3.572,2.8.908.908,0,0,1-.175,1.272A.9.9,0,0,1-5.94-5.695Z" transform="translate(10.003 10.003)"/></g><g transform="translate(35.691 3.602)"><path d="M-2.648-155.719a.908.908,0,0,1-.908-.908v-18.228a.908.908,0,0,1,.43-.772.908.908,0,0,1,.882-.041,10.6,10.6,0,0,0,4.766,1.117,18.36,18.36,0,0,0,10.664-3.989,3.241,3.241,0,0,0,1.21-2.553v-8.329a3.241,3.241,0,0,0-1.21-2.553,18.359,18.359,0,0,0-10.664-3.989A10.719,10.719,0,0,0-8.185-185.257v5.43a.908.908,0,0,1-.908.908.908.908,0,0,1-.908-.908v-5.43A12.536,12.536,0,0,1,2.522-197.779a20.282,20.282,0,0,1,11.8,4.386,5.047,5.047,0,0,1,1.894,3.972v8.329a5.047,5.047,0,0,1-1.894,3.972,20.282,20.282,0,0,1-11.8,4.386,12.415,12.415,0,0,1-4.262-.744v16.852A.908.908,0,0,1-2.648-155.719Z" transform="translate(10 197.779)"/></g><g transform="translate(35.691 24.277)"><path d="M-75.646-231.526H-78.1a2.908,2.908,0,0,1-2.9-2.9V-264.7a.908.908,0,0,1,.908-.908.908.908,0,0,1,.908.908v30.271a1.091,1.091,0,0,0,1.09,1.09h2.45a1.091,1.091,0,0,0,1.09-1.09v-7.07a.908.908,0,0,1,.908-.908.908.908,0,0,1,.908.908v7.07A2.908,2.908,0,0,1-75.646-231.526Z" transform="translate(81.001 265.61)"/></g><g transform="translate(42.135 22.462)"><path d="M-9.092-39.814A.908.908,0,0,1-10-40.721v-3.157a.908.908,0,0,1,.908-.908.908.908,0,0,1,.908.908v3.157A.908.908,0,0,1-9.092-39.814Z" transform="translate(10 44.787)"/></g><g transform="translate(54.422 13.996)"><path d="M-9.092-6.184A.908.908,0,0,1-10-7.091v-2A.908.908,0,0,1-9.092-10a.908.908,0,0,1,.908.908v2A.908.908,0,0,1-9.092-6.184Z" transform="translate(10 10)"/></g><g transform="translate(41.874 8.995)"><path d="M-43.843-5.695a.9.9,0,0,1-.547-.184.908.908,0,0,1-.175-1.272,8.558,8.558,0,0,1,3.572-2.8.908.908,0,0,1,1.16.55.908.908,0,0,1-.546,1.158,6.862,6.862,0,0,0-2.74,2.187A.906.906,0,0,1-43.843-5.695Z" transform="translate(44.75 10.003)"/></g></g></g></g></svg>