<svg xmlns="http://www.w3.org/2000/svg" width="90" height="90" viewBox="0 0 90 90"><g transform="translate(-1610.5 -884)"><g transform="translate(1610.5 884)" fill="none" stroke="#a7a7a7" stroke-width="1"><rect width="90" height="90" rx="12" stroke="none"/><rect x="0.5" y="0.5" width="89" height="89" rx="11.5" fill="none"/></g><g transform="translate(1636.349 899.314)"><path d="M15,14.958v1.915a.958.958,0,0,0,1.915,0V14.958A.958.958,0,0,0,15,14.958Z" transform="translate(-12.127 -1.551)"/><path d="M35.94,29.728a.957.957,0,0,0,.958-.958V25.9H47.432A2.876,2.876,0,0,0,50.3,23.025V7.7A2.876,2.876,0,0,0,47.432,4.83H36.9V1.958A.957.957,0,0,0,35.94,1H26.364a.957.957,0,0,0-.958.958V4.83H14.873A2.876,2.876,0,0,0,12,7.7V23.025A2.876,2.876,0,0,0,14.873,25.9H25.407v2.873a.957.957,0,0,0,.958.958h1.915V39.3h-.958a.957.957,0,0,0-.958.958V46.48L12.392,56.726a.958.958,0,0,0-.2,1.347,5.771,5.771,0,0,0,4.6,2.3.953.953,0,0,0,.566-.185l9.01-6.608v4.877a.959.959,0,0,0,.444.809,8.341,8.341,0,0,0,4.344,1.106A8.341,8.341,0,0,0,35.5,59.266a.959.959,0,0,0,.444-.809V53.58l9.01,6.608a.953.953,0,0,0,.566.185,5.776,5.776,0,0,0,4.6-2.3.958.958,0,0,0-.2-1.347L35.94,46.48V40.262a.957.957,0,0,0-.958-.958h-.958V29.728ZM27.322,2.915h7.661V4.83H27.322ZM13.915,23.025V7.7a.959.959,0,0,1,.958-.958H47.432a.959.959,0,0,1,.958.958V23.025a.959.959,0,0,1-.958.958h-.958V9.619a.958.958,0,0,0-1.915,0V23.983H14.873A.959.959,0,0,1,13.915,23.025ZM27.322,25.9h7.661v1.915H27.322Zm6.7,15.322V46.1a5.782,5.782,0,0,0-2.873,1.385A5.782,5.782,0,0,0,28.279,46.1V41.22ZM16.49,58.444a3.861,3.861,0,0,1-2.085-.82l13.213-9.689a3.861,3.861,0,0,1,2.085.82Zm17.535-.554a7.833,7.833,0,0,1-5.746,0V52.175l2.873-2.107,2.873,2.107Zm11.789.554L32.6,48.755a3.851,3.851,0,0,1,2.085-.82L47.9,57.625A3.853,3.853,0,0,1,45.814,58.444ZM32.11,39.3H30.195V29.728H32.11Z" transform="translate(-12 -1)"/></g></g></svg>