<svg xmlns="http://www.w3.org/2000/svg" width="90" height="90" viewBox="0 0 90 90"><g transform="translate(-667 -884)"><g transform="translate(667 884)" fill="none" stroke="#a7a7a7" stroke-width="1"><rect width="90" height="90" rx="12" stroke="none"/><rect x="0.5" y="0.5" width="89" height="89" rx="11.5" fill="none"/></g><g transform="translate(686.908 902.822)"><path d="M29.275,19.114a9.578,9.578,0,1,0,9.578,9.578,9.589,9.589,0,0,0-9.578-9.578Zm0,17.125a7.547,7.547,0,1,1,7.547-7.547A7.556,7.556,0,0,1,29.275,36.239Z" transform="translate(-14.166 -13.847)"/><path d="M58.078,35.339a9.578,9.578,0,1,0,9.578,9.578A9.589,9.589,0,0,0,58.078,35.339Zm0,17.126a7.547,7.547,0,1,1,7.547-7.547A7.556,7.556,0,0,1,58.078,52.465Z" transform="translate(-23.47 -19.088)"/><path d="M29.275,54.14a9.578,9.578,0,1,0,9.578,9.578A9.589,9.589,0,0,0,29.275,54.14Zm0,17.125a7.547,7.547,0,1,1,7.547-7.547A7.556,7.556,0,0,1,29.275,71.265Z" transform="translate(-14.166 -25.161)"/><path d="M72.918,25.472a3.18,3.18,0,1,0-3.179-3.179A3.183,3.183,0,0,0,72.918,25.472Zm0-4.327a1.149,1.149,0,1,1-1.148,1.149A1.15,1.15,0,0,1,72.918,21.145Z" transform="translate(-30.33 -13.847)"/><path d="M76.114,71a3.18,3.18,0,1,0,3.179,3.18A3.183,3.183,0,0,0,76.114,71Zm0,4.328a1.149,1.149,0,1,1,1.148-1.148A1.15,1.15,0,0,1,76.114,75.333Z" transform="translate(-31.363 -30.608)"/><path d="M32.328,28.565a3.18,3.18,0,1,0,3.179,3.18A3.183,3.183,0,0,0,32.328,28.565Zm0,4.328a1.149,1.149,0,1,1,1.148-1.148A1.15,1.15,0,0,1,32.328,32.893Z" transform="translate(-17.219 -16.9)"/><path d="M61.131,44.792a3.18,3.18,0,1,0,3.179,3.18A3.183,3.183,0,0,0,61.131,44.792Zm0,4.328a1.149,1.149,0,1,1,1.148-1.148A1.15,1.15,0,0,1,61.131,49.12Z" transform="translate(-26.523 -22.141)"/><path d="M32.328,63.592a3.18,3.18,0,1,0,3.179,3.18,3.183,3.183,0,0,0-3.179-3.18Zm0,4.328a1.149,1.149,0,1,1,1.148-1.148A1.15,1.15,0,0,1,32.328,67.92Z" transform="translate(-17.219 -28.214)"/><path d="M53.118,11.333H22.028a10.513,10.513,0,0,0-10.5,10.5V53.188a10.513,10.513,0,0,0,10.5,10.5h31.09a10.513,10.513,0,0,0,10.5-10.5V21.834a10.513,10.513,0,0,0-10.5-10.5Zm8.47,41.854a8.48,8.48,0,0,1-8.47,8.47H22.028a8.48,8.48,0,0,1-8.47-8.47V21.834a8.48,8.48,0,0,1,8.47-8.47h31.09a8.48,8.48,0,0,1,8.47,8.47Z" transform="translate(-11.527 -11.334)"/></g></g></svg>